<?xml version="1.0" encoding="UTF-8"?>
<svg version="1.1" xmlns="http://www.w3.org/2000/svg" width="232" height="239">
<path d="M0 0 C76.56 0 153.12 0 232 0 C232 78.87 232 157.74 232 239 C155.44 239 78.88 239 0 239 C0 160.13 0 81.26 0 0 Z " fill="#FDFEFE" transform="translate(0,0)"/>
<path d="M0 0 C1.9375 0.8125 1.9375 0.8125 3.9375 2.8125 C4.16455078 4.87548828 4.16455078 4.87548828 4.1328125 7.3828125 C4.12636719 8.27871094 4.11992187 9.17460937 4.11328125 10.09765625 C4.08814453 11.50337891 4.08814453 11.50337891 4.0625 12.9375 C4.05347656 13.88238281 4.04445313 14.82726563 4.03515625 15.80078125 C4.01154668 18.13812827 3.97567494 20.47534549 3.9375 22.8125 C8.5575 22.8125 13.1775 22.8125 17.9375 22.8125 C17.88529297 20.69908203 17.88529297 20.69908203 17.83203125 18.54296875 C17.80389453 16.69532441 17.77659425 14.84766719 17.75 13 C17.72486328 12.07123047 17.69972656 11.14246094 17.67382812 10.18554688 C17.66416016 9.29287109 17.65449219 8.40019531 17.64453125 7.48046875 C17.6288208 6.65828857 17.61311035 5.8361084 17.59692383 4.98901367 C18.01183079 2.33747566 18.89279751 1.47986408 20.9375 -0.1875 C22.5875 0.4725 24.2375 1.1325 25.9375 1.8125 C25.9375 8.7425 25.9375 15.6725 25.9375 22.8125 C27.79375 22.750625 29.65 22.68875 31.5625 22.625 C36.46421045 22.63077351 39.84348862 22.87320978 43.9375 25.8125 C47.69618883 29.96001871 48.05875026 33.53622549 48 39 C47.99097656 40.08667969 47.98195312 41.17335937 47.97265625 42.29296875 C47.95525391 43.54013672 47.95525391 43.54013672 47.9375 44.8125 C49.21367187 44.78929687 50.48984375 44.76609375 51.8046875 44.7421875 C53.4739525 44.72343171 55.1432238 44.70523131 56.8125 44.6875 C57.65425781 44.67074219 58.49601563 44.65398438 59.36328125 44.63671875 C60.16894531 44.63027344 60.97460938 44.62382813 61.8046875 44.6171875 C62.54831543 44.60671387 63.29194336 44.59624023 64.05810547 44.58544922 C65.9375 44.8125 65.9375 44.8125 67.9375 46.8125 C68.25 49.3125 68.25 49.3125 67.9375 51.8125 C64.89068939 53.84370707 64.33631676 54.05909875 60.92578125 54.0078125 C60.16845703 54.00136719 59.41113281 53.99492188 58.63085938 53.98828125 C57.84517578 53.97152344 57.05949219 53.95476563 56.25 53.9375 C55.45271484 53.92847656 54.65542969 53.91945312 53.83398438 53.91015625 C51.868361 53.88661585 49.90289225 53.85074547 47.9375 53.8125 C47.9375 58.1025 47.9375 62.3925 47.9375 66.8125 C49.21367187 66.78929688 50.48984375 66.76609375 51.8046875 66.7421875 C53.4739525 66.72343171 55.1432238 66.70523131 56.8125 66.6875 C57.65425781 66.67074219 58.49601563 66.65398437 59.36328125 66.63671875 C60.16894531 66.63027344 60.97460938 66.62382813 61.8046875 66.6171875 C62.54831543 66.60671387 63.29194336 66.59624023 64.05810547 66.58544922 C65.9375 66.8125 65.9375 66.8125 67.9375 68.8125 C68.0625 71.4375 68.0625 71.4375 67.9375 73.8125 C64.0959024 76.38030471 60.1235825 76.03938882 55.6875 75.9375 C54.94242188 75.92847656 54.19734375 75.91945313 53.4296875 75.91015625 C51.59881941 75.88668358 49.76811762 75.85081525 47.9375 75.8125 C47.9375 80.1025 47.9375 84.3925 47.9375 88.8125 C49.21367187 88.78929688 50.48984375 88.76609375 51.8046875 88.7421875 C53.4739525 88.72343171 55.1432238 88.70523131 56.8125 88.6875 C57.65425781 88.67074219 58.49601563 88.65398437 59.36328125 88.63671875 C60.16894531 88.63027344 60.97460938 88.62382813 61.8046875 88.6171875 C62.54831543 88.60671387 63.29194336 88.59624023 64.05810547 88.58544922 C65.9375 88.8125 65.9375 88.8125 67.9375 90.8125 C68.1875 93.3125 68.1875 93.3125 67.9375 95.8125 C65.9375 97.8125 65.9375 97.8125 63.96630859 98.03955078 C62.7880249 98.02384033 62.7880249 98.02384033 61.5859375 98.0078125 C60.30976563 97.99814453 60.30976563 97.99814453 59.0078125 97.98828125 C58.11835938 97.97152344 57.22890625 97.95476562 56.3125 97.9375 C55.4153125 97.92847656 54.518125 97.91945313 53.59375 97.91015625 C51.37488678 97.88655132 49.1561603 97.85067962 46.9375 97.8125 C47.2675 102.1025 47.5975 106.3925 47.9375 110.8125 C49.29746094 110.87308594 50.65742188 110.93367188 52.05859375 110.99609375 C53.83074097 111.08048171 55.60287577 111.16513058 57.375 111.25 C58.27283203 111.28931641 59.17066406 111.32863281 60.09570312 111.36914062 C60.94970703 111.41103516 61.80371094 111.45292969 62.68359375 111.49609375 C63.47435303 111.53275146 64.2651123 111.56940918 65.07983398 111.60717773 C66.9375 111.8125 66.9375 111.8125 67.9375 112.8125 C68.125 115.25 68.125 115.25 67.9375 117.8125 C65.58391749 120.16608251 65.00781606 120.09121904 61.8046875 120.2265625 C60.99902344 120.26523438 60.19335938 120.30390625 59.36328125 120.34375 C58.52152344 120.3746875 57.67976562 120.405625 56.8125 120.4375 C55.96300781 120.47617188 55.11351562 120.51484375 54.23828125 120.5546875 C52.13838316 120.64906494 50.03797109 120.73187586 47.9375 120.8125 C47.77894531 121.47636719 47.62039062 122.14023438 47.45703125 122.82421875 C45.98065805 128.41159798 44.72401428 132.19342823 39.9375 135.8125 C36.97725462 136.79304249 34.29223296 136.92065784 31.1875 136.875 C30.38828125 136.86597656 29.5890625 136.85695312 28.765625 136.84765625 C27.86070312 136.83025391 27.86070312 136.83025391 26.9375 136.8125 C26.98970703 138.27623047 26.98970703 138.27623047 27.04296875 139.76953125 C27.07003906 141.04183594 27.09710938 142.31414062 27.125 143.625 C27.15980469 144.88957031 27.19460937 146.15414062 27.23046875 147.45703125 C26.9375 150.8125 26.9375 150.8125 25.58984375 152.7734375 C23.9375 153.8125 23.9375 153.8125 21.3125 153.625 C18.9375 152.8125 18.9375 152.8125 17.9375 150.8125 C17.79753931 146.14341139 17.89502715 141.48451378 17.9375 136.8125 C13.3175 136.8125 8.6975 136.8125 3.9375 136.8125 C3.96070313 137.94429687 3.98390625 139.07609375 4.0078125 140.2421875 C4.02656901 141.72395175 4.04476934 143.20572312 4.0625 144.6875 C4.07925781 145.43386719 4.09601563 146.18023437 4.11328125 146.94921875 C4.1308959 148.90444461 4.04070189 150.85992021 3.9375 152.8125 C1.9375 154.8125 1.9375 154.8125 -0.5625 155.125 C-1.8 154.9703125 -1.8 154.9703125 -3.0625 154.8125 C-5.51641569 151.13162647 -5.29052759 148.36894412 -5.1875 144.125 C-5.17847656 143.42310547 -5.16945313 142.72121094 -5.16015625 141.99804688 C-5.13663704 140.26938475 -5.10076713 138.54089855 -5.0625 136.8125 C-9.3525 137.1425 -13.6425 137.4725 -18.0625 137.8125 C-18.12308594 138.95589844 -18.18367188 140.09929687 -18.24609375 141.27734375 C-18.33048428 142.76824305 -18.41513302 144.25912775 -18.5 145.75 C-18.53931641 146.50474609 -18.57863281 147.25949219 -18.61914062 148.03710938 C-18.94921875 153.69921875 -18.94921875 153.69921875 -20.0625 154.8125 C-22.06208364 154.85330783 -24.06295254 154.85504356 -26.0625 154.8125 C-27.58356634 151.77036733 -27.43679338 148.53202428 -27.625 145.1875 C-27.66818359 144.48109375 -27.71136719 143.7746875 -27.75585938 143.046875 C-27.86194751 141.30231463 -27.96272889 139.55743303 -28.0625 137.8125 C-31.6925 137.8125 -35.3225 137.8125 -39.0625 137.8125 C-39.11148438 138.79992187 -39.16046875 139.78734375 -39.2109375 140.8046875 C-39.28570312 142.08601562 -39.36046875 143.36734375 -39.4375 144.6875 C-39.54191406 146.60175781 -39.54191406 146.60175781 -39.6484375 148.5546875 C-40.0625 151.8125 -40.0625 151.8125 -42.0625 153.8125 C-45.35964793 153.48278521 -46.6851839 153.1898161 -49.0625 150.8125 C-49.2578125 147.5546875 -49.2578125 147.5546875 -49.1875 143.6875 C-49.16945312 142.40617188 -49.15140625 141.12484375 -49.1328125 139.8046875 C-49.10960937 138.81726563 -49.08640625 137.82984375 -49.0625 136.8125 C-49.70316406 136.85890625 -50.34382813 136.9053125 -51.00390625 136.953125 C-57.32078221 137.21672042 -61.05358718 136.79918571 -66.0625 132.8125 C-68.21717706 128.86225872 -69.23575289 125.1942597 -70.0625 120.8125 C-71.97675781 120.73902344 -71.97675781 120.73902344 -73.9296875 120.6640625 C-75.59898072 120.58903809 -77.26825046 120.51349012 -78.9375 120.4375 C-79.77925781 120.4065625 -80.62101562 120.375625 -81.48828125 120.34375 C-82.29394531 120.30507812 -83.09960938 120.26640625 -83.9296875 120.2265625 C-85.04512939 120.17943115 -85.04512939 120.17943115 -86.18310547 120.13134766 C-88.0625 119.8125 -88.0625 119.8125 -90.0625 117.8125 C-89.50694444 113.25694444 -89.50694444 113.25694444 -88.0625 111.8125 C-86.72234779 111.65667697 -85.37491097 111.56205858 -84.02734375 111.49609375 C-83.21845703 111.45419922 -82.40957031 111.41230469 -81.57617188 111.36914062 C-80.72603516 111.32982422 -79.87589844 111.29050781 -79 111.25 C-78.14599609 111.20681641 -77.29199219 111.16363281 -76.41210938 111.11914062 C-74.29577963 111.01273298 -72.17916187 110.91208269 -70.0625 110.8125 C-70.0625 106.5225 -70.0625 102.2325 -70.0625 97.8125 C-71.33867188 97.83570312 -72.61484375 97.85890625 -73.9296875 97.8828125 C-75.5989525 97.90156829 -77.2682238 97.91976869 -78.9375 97.9375 C-79.77925781 97.95425781 -80.62101562 97.97101563 -81.48828125 97.98828125 C-82.29394531 97.99472656 -83.09960938 98.00117187 -83.9296875 98.0078125 C-84.67331543 98.01828613 -85.41694336 98.02875977 -86.18310547 98.03955078 C-88.0625 97.8125 -88.0625 97.8125 -90.0625 95.8125 C-89.8125 92.75 -89.8125 92.75 -89.0625 89.8125 C-85.75255287 88.15752644 -82.07127 88.71165665 -78.4375 88.75 C-77.63570312 88.75451172 -76.83390625 88.75902344 -76.0078125 88.76367188 C-74.02600994 88.77546832 -72.04424567 88.79340395 -70.0625 88.8125 C-70.0625 84.5225 -70.0625 80.2325 -70.0625 75.8125 C-71.25488281 75.84730469 -72.44726562 75.88210937 -73.67578125 75.91796875 C-75.24217342 75.94610753 -76.80858081 75.9734076 -78.375 76 C-79.16068359 76.02513672 -79.94636719 76.05027344 -80.75585938 76.07617188 C-81.51318359 76.08583984 -82.27050781 76.09550781 -83.05078125 76.10546875 C-83.74727783 76.1211792 -84.44377441 76.13688965 -85.16137695 76.15307617 C-87.66003557 75.70545465 -88.55611723 74.82210345 -90.0625 72.8125 C-89.64144737 68.39144737 -89.64144737 68.39144737 -88.0625 66.8125 C-86.71982587 66.72618126 -85.37275678 66.70543527 -84.02734375 66.71484375 C-83.21845703 66.71806641 -82.40957031 66.72128906 -81.57617188 66.72460938 C-80.72603516 66.73298828 -79.87589844 66.74136719 -79 66.75 C-78.14599609 66.75451172 -77.29199219 66.75902344 -76.41210938 66.76367188 C-74.29554337 66.77549627 -72.17901315 66.79343231 -70.0625 66.8125 C-70.0625 62.5225 -70.0625 58.2325 -70.0625 53.8125 C-71.25488281 53.84730469 -72.44726562 53.88210937 -73.67578125 53.91796875 C-75.24217342 53.94610753 -76.80858081 53.9734076 -78.375 54 C-79.55352539 54.03770508 -79.55352539 54.03770508 -80.75585938 54.07617188 C-81.51318359 54.08583984 -82.27050781 54.09550781 -83.05078125 54.10546875 C-83.74727783 54.1211792 -84.44377441 54.13688965 -85.16137695 54.15307617 C-87.66003557 53.70545465 -88.55611723 52.82210345 -90.0625 50.8125 C-89.64144737 46.39144737 -89.64144737 46.39144737 -88.0625 44.8125 C-86.71982587 44.72618126 -85.37275678 44.70543527 -84.02734375 44.71484375 C-83.21845703 44.71806641 -82.40957031 44.72128906 -81.57617188 44.72460938 C-80.72603516 44.73298828 -79.87589844 44.74136719 -79 44.75 C-78.14599609 44.75451172 -77.29199219 44.75902344 -76.41210938 44.76367188 C-74.29554337 44.77549627 -72.17901315 44.79343231 -70.0625 44.8125 C-70.10890625 44.11125 -70.1553125 43.41 -70.203125 42.6875 C-70.44979597 36.20357724 -70.16470049 31.05920157 -66.0625 25.8125 C-60.96883844 21.83695927 -55.22555964 22.51640995 -49.0625 22.8125 C-49.09730469 21.62011719 -49.13210937 20.42773438 -49.16796875 19.19921875 C-49.19610753 17.63282658 -49.2234076 16.06641919 -49.25 14.5 C-49.27513672 13.71431641 -49.30027344 12.92863281 -49.32617188 12.11914062 C-49.33583984 11.36181641 -49.34550781 10.60449219 -49.35546875 9.82421875 C-49.3711792 9.12772217 -49.38688965 8.43122559 -49.40307617 7.71362305 C-48.95545465 5.21496443 -48.07210345 4.31888277 -46.0625 2.8125 C-41.64144737 3.23355263 -41.64144737 3.23355263 -40.0625 4.8125 C-39.97618126 6.15517413 -39.95543527 7.50224322 -39.96484375 8.84765625 C-39.96806641 9.65654297 -39.97128906 10.46542969 -39.97460938 11.29882812 C-39.98717773 12.5740332 -39.98717773 12.5740332 -40 13.875 C-40.00451172 14.72900391 -40.00902344 15.58300781 -40.01367188 16.46289062 C-40.02549627 18.57945663 -40.04343231 20.69598685 -40.0625 22.8125 C-35.7725 22.8125 -31.4825 22.8125 -27.0625 22.8125 C-27.07410156 21.39195313 -27.08570313 19.97140625 -27.09765625 18.5078125 C-27.10703387 16.65104298 -27.1161341 14.79427204 -27.125 12.9375 C-27.13337891 12.00035156 -27.14175781 11.06320312 -27.15039062 10.09765625 C-27.15361328 9.20175781 -27.15683594 8.30585938 -27.16015625 7.3828125 C-27.16539307 6.55539551 -27.17062988 5.72797852 -27.17602539 4.87548828 C-27.0625 2.8125 -27.0625 2.8125 -26.0625 0.8125 C-24.06295254 0.76995644 -22.06208364 0.77169217 -20.0625 0.8125 C-19.0625 1.8125 -19.0625 1.8125 -18.94897461 3.85375977 C-18.95682983 5.16558228 -18.95682983 5.16558228 -18.96484375 6.50390625 C-18.96967773 7.92026367 -18.96967773 7.92026367 -18.97460938 9.36523438 C-18.98717773 10.85506836 -18.98717773 10.85506836 -19 12.375 C-19.00451172 13.37208984 -19.00902344 14.36917969 -19.01367188 15.39648438 C-19.02549977 17.86851487 -19.04343585 20.34051472 -19.0625 22.8125 C-14.4425 22.8125 -9.8225 22.8125 -5.0625 22.8125 C-5.11470703 20.69908203 -5.11470703 20.69908203 -5.16796875 18.54296875 C-5.19610547 16.69532441 -5.22340575 14.84766719 -5.25 13 C-5.27513672 12.07123047 -5.30027344 11.14246094 -5.32617188 10.18554688 C-5.33583984 9.29287109 -5.34550781 8.40019531 -5.35546875 7.48046875 C-5.3711792 6.65828857 -5.38688965 5.8361084 -5.40307617 4.98901367 C-4.88918543 1.70490187 -3.4639265 -0.31490241 0 0 Z " fill="#FCFDFD" transform="translate(127.0625,1.1875)"/>
<path d="M0 0 C1.796875 0.08984375 1.796875 0.08984375 4 1 C6.078125 3.44140625 6.078125 3.44140625 8.25 6.5625 C25.24662405 30.09308069 52.95777551 41.96597265 79.65673828 51.18457031 C81.51335195 51.83065175 83.35224573 52.52762471 85.18359375 53.2421875 C92.96404402 55.33567897 100.13961076 53.28666984 107.75 51.375 C108.85037598 51.10284668 109.95075195 50.83069336 111.08447266 50.55029297 C138.35003056 43.70926 164.95615042 35.38135667 186 16 C186.80953125 15.26136719 187.6190625 14.52273437 188.453125 13.76171875 C192.56629299 9.83897521 195.45665367 6.08669267 198 1 C200.375 1.1875 200.375 1.1875 203 2 C206.06155318 7.79550316 205.36836221 14.18026208 205.375 20.5625 C205.39949219 21.77486328 205.42398438 22.98722656 205.44921875 24.23632812 C205.48782278 36.23574896 202.25927747 45.84150051 196 56 C198.31 56.66 200.62 57.32 203 58 C202.74693718 69.38782682 193.43870811 78.23674092 186 86 C185.37480469 86.68835938 184.74960938 87.37671875 184.10546875 88.0859375 C166.28587116 107.0684983 136.71189231 118.94727984 111 120 C110.36352539 120.02723145 109.72705078 120.05446289 109.07128906 120.08251953 C75.96663222 121.30947534 43.38259585 110.42647784 18.69921875 88.0390625 C10.89936449 80.72740056 0.02750373 70.22350228 -1 59 C-0.67 58.34 -0.34 57.68 0 57 C2.64 57 5.28 57 8 57 C7.46890625 56.12859375 6.9378125 55.2571875 6.390625 54.359375 C-0.77020563 42.40999269 -4.31943852 32.74810496 -4.4375 18.625 C-4.4478125 17.57779785 -4.458125 16.5305957 -4.46875 15.45166016 C-4.4023944 9.71835162 -4.33841266 4.33841266 0 0 Z " fill="#087E81" transform="translate(15,114)"/>
<path d="M0 0 C1.9375 0.8125 1.9375 0.8125 3.9375 2.8125 C4.16455078 4.87548828 4.16455078 4.87548828 4.1328125 7.3828125 C4.12636719 8.27871094 4.11992187 9.17460937 4.11328125 10.09765625 C4.08814453 11.50337891 4.08814453 11.50337891 4.0625 12.9375 C4.05347656 13.88238281 4.04445313 14.82726563 4.03515625 15.80078125 C4.01154668 18.13812827 3.97567494 20.47534549 3.9375 22.8125 C8.5575 22.8125 13.1775 22.8125 17.9375 22.8125 C17.88529297 20.69908203 17.88529297 20.69908203 17.83203125 18.54296875 C17.80389453 16.69532441 17.77659425 14.84766719 17.75 13 C17.72486328 12.07123047 17.69972656 11.14246094 17.67382812 10.18554688 C17.66416016 9.29287109 17.65449219 8.40019531 17.64453125 7.48046875 C17.6288208 6.65828857 17.61311035 5.8361084 17.59692383 4.98901367 C18.01183079 2.33747566 18.89279751 1.47986408 20.9375 -0.1875 C22.5875 0.4725 24.2375 1.1325 25.9375 1.8125 C25.9375 8.7425 25.9375 15.6725 25.9375 22.8125 C27.79375 22.750625 29.65 22.68875 31.5625 22.625 C36.46421045 22.63077351 39.84348862 22.87320978 43.9375 25.8125 C47.69618883 29.96001871 48.05875026 33.53622549 48 39 C47.99097656 40.08667969 47.98195312 41.17335937 47.97265625 42.29296875 C47.95525391 43.54013672 47.95525391 43.54013672 47.9375 44.8125 C49.21367187 44.78929687 50.48984375 44.76609375 51.8046875 44.7421875 C53.4739525 44.72343171 55.1432238 44.70523131 56.8125 44.6875 C57.65425781 44.67074219 58.49601563 44.65398438 59.36328125 44.63671875 C60.16894531 44.63027344 60.97460938 44.62382813 61.8046875 44.6171875 C62.54831543 44.60671387 63.29194336 44.59624023 64.05810547 44.58544922 C65.9375 44.8125 65.9375 44.8125 67.9375 46.8125 C68.25 49.3125 68.25 49.3125 67.9375 51.8125 C64.89068939 53.84370707 64.33631676 54.05909875 60.92578125 54.0078125 C60.16845703 54.00136719 59.41113281 53.99492188 58.63085938 53.98828125 C57.84517578 53.97152344 57.05949219 53.95476563 56.25 53.9375 C55.45271484 53.92847656 54.65542969 53.91945312 53.83398438 53.91015625 C51.868361 53.88661585 49.90289225 53.85074547 47.9375 53.8125 C47.9375 58.1025 47.9375 62.3925 47.9375 66.8125 C49.21367187 66.78929688 50.48984375 66.76609375 51.8046875 66.7421875 C53.4739525 66.72343171 55.1432238 66.70523131 56.8125 66.6875 C57.65425781 66.67074219 58.49601563 66.65398437 59.36328125 66.63671875 C60.16894531 66.63027344 60.97460938 66.62382813 61.8046875 66.6171875 C62.54831543 66.60671387 63.29194336 66.59624023 64.05810547 66.58544922 C65.9375 66.8125 65.9375 66.8125 67.9375 68.8125 C68.0625 71.4375 68.0625 71.4375 67.9375 73.8125 C64.0959024 76.38030471 60.1235825 76.03938882 55.6875 75.9375 C54.94242188 75.92847656 54.19734375 75.91945313 53.4296875 75.91015625 C51.59881941 75.88668358 49.76811762 75.85081525 47.9375 75.8125 C47.9375 80.1025 47.9375 84.3925 47.9375 88.8125 C49.21367187 88.78929688 50.48984375 88.76609375 51.8046875 88.7421875 C53.4739525 88.72343171 55.1432238 88.70523131 56.8125 88.6875 C57.65425781 88.67074219 58.49601563 88.65398437 59.36328125 88.63671875 C60.16894531 88.63027344 60.97460938 88.62382813 61.8046875 88.6171875 C62.54831543 88.60671387 63.29194336 88.59624023 64.05810547 88.58544922 C65.9375 88.8125 65.9375 88.8125 67.9375 90.8125 C68.1875 93.3125 68.1875 93.3125 67.9375 95.8125 C65.9375 97.8125 65.9375 97.8125 63.96630859 98.03955078 C62.7880249 98.02384033 62.7880249 98.02384033 61.5859375 98.0078125 C60.30976563 97.99814453 60.30976563 97.99814453 59.0078125 97.98828125 C58.11835938 97.97152344 57.22890625 97.95476562 56.3125 97.9375 C55.4153125 97.92847656 54.518125 97.91945313 53.59375 97.91015625 C51.37488678 97.88655132 49.1561603 97.85067962 46.9375 97.8125 C47.2675 102.1025 47.5975 106.3925 47.9375 110.8125 C49.29746094 110.87308594 50.65742188 110.93367188 52.05859375 110.99609375 C53.83074097 111.08048171 55.60287577 111.16513058 57.375 111.25 C58.27283203 111.28931641 59.17066406 111.32863281 60.09570312 111.36914062 C60.94970703 111.41103516 61.80371094 111.45292969 62.68359375 111.49609375 C63.47435303 111.53275146 64.2651123 111.56940918 65.07983398 111.60717773 C66.9375 111.8125 66.9375 111.8125 67.9375 112.8125 C68.125 115.25 68.125 115.25 67.9375 117.8125 C65.58391749 120.16608251 65.00781606 120.09121904 61.8046875 120.2265625 C60.99902344 120.26523438 60.19335938 120.30390625 59.36328125 120.34375 C58.52152344 120.3746875 57.67976562 120.405625 56.8125 120.4375 C55.96300781 120.47617188 55.11351562 120.51484375 54.23828125 120.5546875 C52.13838316 120.64906494 50.03797109 120.73187586 47.9375 120.8125 C47.77894531 121.47636719 47.62039062 122.14023438 47.45703125 122.82421875 C45.98065805 128.41159798 44.72401428 132.19342823 39.9375 135.8125 C36.97725462 136.79304249 34.29223296 136.92065784 31.1875 136.875 C30.38828125 136.86597656 29.5890625 136.85695312 28.765625 136.84765625 C27.86070312 136.83025391 27.86070312 136.83025391 26.9375 136.8125 C26.98970703 138.27623047 26.98970703 138.27623047 27.04296875 139.76953125 C27.07003906 141.04183594 27.09710938 142.31414062 27.125 143.625 C27.15980469 144.88957031 27.19460937 146.15414062 27.23046875 147.45703125 C26.9375 150.8125 26.9375 150.8125 25.58984375 152.7734375 C23.9375 153.8125 23.9375 153.8125 21.3125 153.625 C18.9375 152.8125 18.9375 152.8125 17.9375 150.8125 C17.79753931 146.14341139 17.89502715 141.48451378 17.9375 136.8125 C13.3175 136.8125 8.6975 136.8125 3.9375 136.8125 C3.96070313 137.94429687 3.98390625 139.07609375 4.0078125 140.2421875 C4.02656901 141.72395175 4.04476934 143.20572312 4.0625 144.6875 C4.07925781 145.43386719 4.09601563 146.18023437 4.11328125 146.94921875 C4.1308959 148.90444461 4.04070189 150.85992021 3.9375 152.8125 C1.9375 154.8125 1.9375 154.8125 -0.5625 155.125 C-1.8 154.9703125 -1.8 154.9703125 -3.0625 154.8125 C-5.51641569 151.13162647 -5.29052759 148.36894412 -5.1875 144.125 C-5.17847656 143.42310547 -5.16945313 142.72121094 -5.16015625 141.99804688 C-5.13663704 140.26938475 -5.10076713 138.54089855 -5.0625 136.8125 C-9.3525 137.1425 -13.6425 137.4725 -18.0625 137.8125 C-18.12308594 138.95589844 -18.18367188 140.09929687 -18.24609375 141.27734375 C-18.33048428 142.76824305 -18.41513302 144.25912775 -18.5 145.75 C-18.53931641 146.50474609 -18.57863281 147.25949219 -18.61914062 148.03710938 C-18.94921875 153.69921875 -18.94921875 153.69921875 -20.0625 154.8125 C-22.06208364 154.85330783 -24.06295254 154.85504356 -26.0625 154.8125 C-27.58356634 151.77036733 -27.43679338 148.53202428 -27.625 145.1875 C-27.66818359 144.48109375 -27.71136719 143.7746875 -27.75585938 143.046875 C-27.86194751 141.30231463 -27.96272889 139.55743303 -28.0625 137.8125 C-31.6925 137.8125 -35.3225 137.8125 -39.0625 137.8125 C-39.11148438 138.79992187 -39.16046875 139.78734375 -39.2109375 140.8046875 C-39.28570312 142.08601562 -39.36046875 143.36734375 -39.4375 144.6875 C-39.54191406 146.60175781 -39.54191406 146.60175781 -39.6484375 148.5546875 C-40.0625 151.8125 -40.0625 151.8125 -42.0625 153.8125 C-45.35964793 153.48278521 -46.6851839 153.1898161 -49.0625 150.8125 C-49.2578125 147.5546875 -49.2578125 147.5546875 -49.1875 143.6875 C-49.16945312 142.40617188 -49.15140625 141.12484375 -49.1328125 139.8046875 C-49.10960937 138.81726563 -49.08640625 137.82984375 -49.0625 136.8125 C-49.70316406 136.85890625 -50.34382813 136.9053125 -51.00390625 136.953125 C-57.32078221 137.21672042 -61.05358718 136.79918571 -66.0625 132.8125 C-68.21717706 128.86225872 -69.23575289 125.1942597 -70.0625 120.8125 C-71.97675781 120.73902344 -71.97675781 120.73902344 -73.9296875 120.6640625 C-75.59898072 120.58903809 -77.26825046 120.51349012 -78.9375 120.4375 C-79.77925781 120.4065625 -80.62101562 120.375625 -81.48828125 120.34375 C-82.29394531 120.30507812 -83.09960938 120.26640625 -83.9296875 120.2265625 C-85.04512939 120.17943115 -85.04512939 120.17943115 -86.18310547 120.13134766 C-88.0625 119.8125 -88.0625 119.8125 -90.0625 117.8125 C-89.50694444 113.25694444 -89.50694444 113.25694444 -88.0625 111.8125 C-86.72234779 111.65667697 -85.37491097 111.56205858 -84.02734375 111.49609375 C-83.21845703 111.45419922 -82.40957031 111.41230469 -81.57617188 111.36914062 C-80.72603516 111.32982422 -79.87589844 111.29050781 -79 111.25 C-78.14599609 111.20681641 -77.29199219 111.16363281 -76.41210938 111.11914062 C-74.29577963 111.01273298 -72.17916187 110.91208269 -70.0625 110.8125 C-70.0625 106.5225 -70.0625 102.2325 -70.0625 97.8125 C-71.33867188 97.83570312 -72.61484375 97.85890625 -73.9296875 97.8828125 C-75.5989525 97.90156829 -77.2682238 97.91976869 -78.9375 97.9375 C-79.77925781 97.95425781 -80.62101562 97.97101563 -81.48828125 97.98828125 C-82.29394531 97.99472656 -83.09960938 98.00117187 -83.9296875 98.0078125 C-84.67331543 98.01828613 -85.41694336 98.02875977 -86.18310547 98.03955078 C-88.0625 97.8125 -88.0625 97.8125 -90.0625 95.8125 C-89.8125 92.75 -89.8125 92.75 -89.0625 89.8125 C-85.75255287 88.15752644 -82.07127 88.71165665 -78.4375 88.75 C-77.63570312 88.75451172 -76.83390625 88.75902344 -76.0078125 88.76367188 C-74.02600994 88.77546832 -72.04424567 88.79340395 -70.0625 88.8125 C-70.0625 84.5225 -70.0625 80.2325 -70.0625 75.8125 C-71.25488281 75.84730469 -72.44726562 75.88210937 -73.67578125 75.91796875 C-75.24217342 75.94610753 -76.80858081 75.9734076 -78.375 76 C-79.16068359 76.02513672 -79.94636719 76.05027344 -80.75585938 76.07617188 C-81.51318359 76.08583984 -82.27050781 76.09550781 -83.05078125 76.10546875 C-83.74727783 76.1211792 -84.44377441 76.13688965 -85.16137695 76.15307617 C-87.66003557 75.70545465 -88.55611723 74.82210345 -90.0625 72.8125 C-89.64144737 68.39144737 -89.64144737 68.39144737 -88.0625 66.8125 C-86.71982587 66.72618126 -85.37275678 66.70543527 -84.02734375 66.71484375 C-83.21845703 66.71806641 -82.40957031 66.72128906 -81.57617188 66.72460938 C-80.72603516 66.73298828 -79.87589844 66.74136719 -79 66.75 C-78.14599609 66.75451172 -77.29199219 66.75902344 -76.41210938 66.76367188 C-74.29554337 66.77549627 -72.17901315 66.79343231 -70.0625 66.8125 C-70.0625 62.5225 -70.0625 58.2325 -70.0625 53.8125 C-71.25488281 53.84730469 -72.44726562 53.88210937 -73.67578125 53.91796875 C-75.24217342 53.94610753 -76.80858081 53.9734076 -78.375 54 C-79.55352539 54.03770508 -79.55352539 54.03770508 -80.75585938 54.07617188 C-81.51318359 54.08583984 -82.27050781 54.09550781 -83.05078125 54.10546875 C-83.74727783 54.1211792 -84.44377441 54.13688965 -85.16137695 54.15307617 C-87.66003557 53.70545465 -88.55611723 52.82210345 -90.0625 50.8125 C-89.64144737 46.39144737 -89.64144737 46.39144737 -88.0625 44.8125 C-86.71982587 44.72618126 -85.37275678 44.70543527 -84.02734375 44.71484375 C-83.21845703 44.71806641 -82.40957031 44.72128906 -81.57617188 44.72460938 C-80.72603516 44.73298828 -79.87589844 44.74136719 -79 44.75 C-78.14599609 44.75451172 -77.29199219 44.75902344 -76.41210938 44.76367188 C-74.29554337 44.77549627 -72.17901315 44.79343231 -70.0625 44.8125 C-70.10890625 44.11125 -70.1553125 43.41 -70.203125 42.6875 C-70.44979597 36.20357724 -70.16470049 31.05920157 -66.0625 25.8125 C-60.96883844 21.83695927 -55.22555964 22.51640995 -49.0625 22.8125 C-49.09730469 21.62011719 -49.13210937 20.42773438 -49.16796875 19.19921875 C-49.19610753 17.63282658 -49.2234076 16.06641919 -49.25 14.5 C-49.27513672 13.71431641 -49.30027344 12.92863281 -49.32617188 12.11914062 C-49.33583984 11.36181641 -49.34550781 10.60449219 -49.35546875 9.82421875 C-49.3711792 9.12772217 -49.38688965 8.43122559 -49.40307617 7.71362305 C-48.95545465 5.21496443 -48.07210345 4.31888277 -46.0625 2.8125 C-41.64144737 3.23355263 -41.64144737 3.23355263 -40.0625 4.8125 C-39.97618126 6.15517413 -39.95543527 7.50224322 -39.96484375 8.84765625 C-39.96806641 9.65654297 -39.97128906 10.46542969 -39.97460938 11.29882812 C-39.98717773 12.5740332 -39.98717773 12.5740332 -40 13.875 C-40.00451172 14.72900391 -40.00902344 15.58300781 -40.01367188 16.46289062 C-40.02549627 18.57945663 -40.04343231 20.69598685 -40.0625 22.8125 C-35.7725 22.8125 -31.4825 22.8125 -27.0625 22.8125 C-27.07410156 21.39195313 -27.08570313 19.97140625 -27.09765625 18.5078125 C-27.10703387 16.65104298 -27.1161341 14.79427204 -27.125 12.9375 C-27.13337891 12.00035156 -27.14175781 11.06320312 -27.15039062 10.09765625 C-27.15361328 9.20175781 -27.15683594 8.30585938 -27.16015625 7.3828125 C-27.16539307 6.55539551 -27.17062988 5.72797852 -27.17602539 4.87548828 C-27.0625 2.8125 -27.0625 2.8125 -26.0625 0.8125 C-24.06295254 0.76995644 -22.06208364 0.77169217 -20.0625 0.8125 C-19.0625 1.8125 -19.0625 1.8125 -18.94897461 3.85375977 C-18.95682983 5.16558228 -18.95682983 5.16558228 -18.96484375 6.50390625 C-18.96967773 7.92026367 -18.96967773 7.92026367 -18.97460938 9.36523438 C-18.98717773 10.85506836 -18.98717773 10.85506836 -19 12.375 C-19.00451172 13.37208984 -19.00902344 14.36917969 -19.01367188 15.39648438 C-19.02549977 17.86851487 -19.04343585 20.34051472 -19.0625 22.8125 C-14.4425 22.8125 -9.8225 22.8125 -5.0625 22.8125 C-5.11470703 20.69908203 -5.11470703 20.69908203 -5.16796875 18.54296875 C-5.19610547 16.69532441 -5.22340575 14.84766719 -5.25 13 C-5.27513672 12.07123047 -5.30027344 11.14246094 -5.32617188 10.18554688 C-5.33583984 9.29287109 -5.34550781 8.40019531 -5.35546875 7.48046875 C-5.3711792 6.65828857 -5.38688965 5.8361084 -5.40307617 4.98901367 C-4.88918543 1.70490187 -3.4639265 -0.31490241 0 0 Z M-58.7814827 34.11376095 C-60.95518848 36.99628165 -60.4689723 40.40795825 -60.43481445 43.87646484 C-60.43846512 44.69792496 -60.44211578 45.51938507 -60.44587708 46.36573792 C-60.45399231 49.08518051 -60.4403622 51.80402894 -60.42578125 54.5234375 C-60.42526266 56.41289266 -60.42578032 58.30234836 -60.42729187 60.19180298 C-60.4272021 64.15464315 -60.41676407 68.11728011 -60.39868164 72.08007812 C-60.37602536 77.15660855 -60.37544426 82.23284115 -60.38219929 87.30940819 C-60.38554368 91.21278524 -60.37889978 95.11609457 -60.36907005 99.01945877 C-60.36522355 100.89093293 -60.36406756 102.76241462 -60.3656559 104.63389206 C-60.36602738 107.25265548 -60.35338196 109.87103972 -60.3371582 112.48974609 C-60.33963562 113.26186935 -60.34211304 114.03399261 -60.34466553 114.82951355 C-60.30443019 118.90563632 -60.06242808 122.21565938 -58.0625 125.8125 C-54.28408461 128.3314436 -51.28343476 128.10096163 -46.90673828 128.0871582 C-46.0755246 128.09226913 -45.24431091 128.09738007 -44.38790894 128.10264587 C-41.63613716 128.11656228 -38.88461531 128.11558339 -36.1328125 128.11328125 C-34.22093614 128.11716743 -32.30906065 128.12150194 -30.39718628 128.12626648 C-26.387321 128.13373337 -22.37754375 128.13343429 -18.36767578 128.12817383 C-13.23055806 128.12238261 -8.09380129 128.13929954 -2.95674324 128.1625185 C0.99295151 128.17725625 4.94255939 128.17812741 8.89227676 128.17500877 C10.78609049 128.1755221 12.67990906 128.18076192 14.57369614 128.19082069 C17.22368496 128.20316674 19.87297151 128.19640421 22.52294922 128.18481445 C23.69516022 128.19628006 23.69516022 128.19628006 24.89105225 128.20797729 C29.39683336 128.16445359 32.45986529 127.77677874 35.9375 124.8125 C38.43779628 120.63416575 38.22106251 116.20828705 38.19628906 111.47387695 C38.1997937 110.64730591 38.20329834 109.82073486 38.20690918 108.96911621 C38.21568798 106.24625164 38.2098926 103.5236483 38.203125 100.80078125 C38.20447237 98.90699717 38.2064135 97.01321343 38.20892334 95.11943054 C38.21186905 91.15600278 38.20759327 87.1926653 38.19824219 83.22924805 C38.1868246 78.14128376 38.19342519 73.05352995 38.20538712 67.96557331 C38.2126007 64.05804344 38.21032051 60.15056381 38.20513153 56.24303246 C38.20379485 54.3662838 38.20544338 52.48953062 38.21009064 50.61278725 C38.2151502 47.99604753 38.20745487 45.37965332 38.19628906 42.76293945 C38.20033752 41.98317245 38.20438599 41.20340546 38.20855713 40.40000916 C38.32618802 36.14507533 38.32618802 36.14507533 35.9375 32.8125 C33.00118689 32.60842264 30.15880411 32.52935612 27.22094727 32.5378418 C26.31839203 32.53273087 25.41583679 32.52761993 24.4859314 32.52235413 C21.49185622 32.50841365 18.49801009 32.50941825 15.50390625 32.51171875 C13.42886773 32.50783423 11.35383001 32.50350007 9.27879333 32.49873352 C4.92501246 32.49126169 0.57131266 32.49156953 -3.7824707 32.49682617 C-9.369325 32.50262166 -14.95584788 32.48569243 -20.54264736 32.4624815 C-24.82939097 32.44776894 -29.1160543 32.44686908 -33.40281868 32.44999123 C-35.46295897 32.44947675 -37.52310362 32.4442155 -39.58321953 32.43417931 C-42.46121801 32.42188038 -45.33856514 32.42856719 -48.21655273 32.44018555 C-49.50008888 32.42871994 -49.50008888 32.42871994 -50.80955505 32.41702271 C-55.06640769 32.33465732 -55.06640769 32.33465732 -58.7814827 34.11376095 Z " fill="#0B7F83" transform="translate(127.0625,1.1875)"/>
<path d="M0 0 C3.30576829 2.59100758 5.87784291 4.63518993 6.734375 8.92578125 C6.98532941 13.07350004 6.68313757 15.93972097 4.0625 19.25 C1.3125 21.8125 1.3125 21.8125 -2.6875 23.8125 C-3.0175 30.7425 -3.3475 37.6725 -3.6875 44.8125 C-2.0375 45.1425 -0.3875 45.4725 1.3125 45.8125 C3.37777603 48.04988237 4.95249771 50.09249542 6.3125 52.8125 C8.6225 52.8125 10.9325 52.8125 13.3125 52.8125 C13.29678955 51.82854248 13.2810791 50.84458496 13.26489258 49.83081055 C13.21059022 46.18001492 13.17614915 42.52925499 13.14770508 38.87817383 C13.13261906 37.29803464 13.1121475 35.71793731 13.08618164 34.13793945 C13.04978874 31.86659415 13.03277238 29.59580241 13.01953125 27.32421875 C13.00404739 26.61786789 12.98856354 25.91151703 12.97261047 25.1837616 C12.97093696 20.30592489 12.97093696 20.30592489 14.63476562 17.90234375 C17.25476925 16.20040892 19.96008103 15.75706236 23 15.125 C24.17949219 14.87363281 25.35898438 14.62226562 26.57421875 14.36328125 C27.47785156 14.18152344 28.38148437 13.99976563 29.3125 13.8125 C29.539375 12.595625 29.76625 11.37875 30 10.125 C31.27178002 5.02886019 34.00408915 2.56370823 38.125 -0.5625 C41.62237556 -1.56175016 44.86642838 -1.13979415 48.3125 -0.1875 C51.71904184 1.96010246 54.09078524 3.92522577 55.3125 7.8125 C55.79540996 13.02792759 55.20834879 16.41879839 52.3125 20.8125 C48.54173858 24.13964243 45.1047267 24.11251129 40.30078125 24.015625 C38.3125 23.8125 38.3125 23.8125 36.3125 22.8125 C34.12283411 22.84951646 31.93407993 22.96437063 29.75 23.125 C28.57308594 23.20363281 27.39617187 23.28226563 26.18359375 23.36328125 C24.76240234 23.58564453 24.76240234 23.58564453 23.3125 23.8125 C21.84456251 26.74837499 22.14687793 29.40903409 22.1015625 32.68359375 C22.07349831 34.07618372 22.04483387 35.4687617 22.015625 36.86132812 C21.974331 39.05802124 21.93744623 41.25448941 21.91113281 43.45141602 C21.88354158 45.5709457 21.83767933 47.6894561 21.7890625 49.80859375 C21.76924316 51.07888428 21.74942383 52.3491748 21.72900391 53.65795898 C21.3125 56.8125 21.3125 56.8125 19.97436523 58.72705078 C16.59154541 60.9365435 12.16201081 60.24311019 8.24609375 60.30859375 C6.79396484 60.55802734 6.79396484 60.55802734 5.3125 60.8125 C3.9560842 62.65547423 3.9560842 62.65547423 3.3125 64.8125 C0.42544734 67.96201199 -1.8723783 69.13769572 -6.0625 69.4375 C-10.66678546 69.24501315 -13.08120113 67.50590519 -16.375 64.41796875 C-19.24592828 60.90620827 -19.05450051 57.143106 -18.6875 52.8125 C-16.66083762 49.10859979 -15.20705484 47.15886989 -11.6875 44.8125 C-10.99763914 41.25209601 -11.17826112 37.61933185 -11.1875 34 C-11.15914063 33.00162109 -11.13078125 32.00324219 -11.1015625 30.97460938 C-11.04789607 24.88000213 -11.04789607 24.88000213 -14.1328125 19.76171875 C-14.97585937 19.11847656 -15.81890625 18.47523437 -16.6875 17.8125 C-19.12201409 13.60743021 -18.853354 10.475916 -17.6875 5.8125 C-13.39847878 -0.84287775 -7.649196 -3.3798773 0 0 Z " fill="#0A7E82" transform="translate(97.6875,46.1875)"/>
<path d="M0 0 C17.84194095 3.31273624 35.43275474 4.49464702 53.5625 5.0625 C49.41802823 9.52345655 44.87396855 11.66464031 39.4375 14.25 C38.53773438 14.70052734 37.63796875 15.15105469 36.7109375 15.61523438 C30.57159271 18.55700375 25.34862739 19.87606089 18.5625 20.0625 C17.63179688 20.09947998 16.70109375 20.13645996 15.7421875 20.17456055 C-11.43167492 21.01140423 -37.14859034 16.69496392 -61.4375 4.0625 C-61.7675 3.4025 -62.0975 2.7425 -62.4375 2.0625 C-61.80996826 2.01762451 -61.18243652 1.97274902 -60.53588867 1.92651367 C-48.85908904 1.07247686 -37.27446825 0.18200448 -25.76831055 -2.05981445 C-16.95093731 -3.66471121 -8.68692288 -1.67532407 0 0 Z " fill="#FAFCFC" transform="translate(122.4375,183.9375)"/>
<path d="M0 0 C0.33 0 0.66 0 1 0 C2.07161272 13.66306213 -4.46172327 25.19589406 -12.75 35.5625 C-18.84800153 42.16866832 -28.28828653 41.75843505 -36.79394531 42.11816406 C-47.47947968 42.3992687 -58.11159335 42.20246498 -68.75 41.125 C-69.52964111 41.04668945 -70.30928223 40.96837891 -71.11254883 40.88769531 C-74.83481276 40.45335491 -77.7205118 39.78099207 -81 38 C-80.46858398 37.8548999 -79.93716797 37.7097998 -79.38964844 37.56030273 C-51.28005174 29.83467803 -21.21997108 21.21997108 0 0 Z " fill="#FAFCFC" transform="translate(209,137)"/>
<path d="M0 0 C0.9075 0.804375 1.815 1.60875 2.75 2.4375 C20.20637591 17.25633203 40.50516114 28.1728148 62 36 C62 36.66 62 37.32 62 38 C56.64755507 38.24941495 51.29856988 38.42964615 45.94165039 38.54931641 C44.12464418 38.59924743 42.30803239 38.66722464 40.49243164 38.75439453 C23.48943565 39.54958279 23.48943565 39.54958279 16.48046875 33.2578125 C14.07495117 30.62939453 14.07495117 30.62939453 12 28 C10.95247559 26.73784668 10.95247559 26.73784668 9.88378906 25.45019531 C4.36566912 18.54718353 0 8.90600616 0 0 Z " fill="#F9FBFB" transform="translate(21,137)"/>
<path d="M0 0 C3.18618806 2.09998758 4.35911202 3.2580085 5.75 6.8125 C6.38756446 10.64497083 6.63580008 14.15338238 4.765625 17.65625 C2.92278381 19.97686483 1.27919104 21.60670349 -1.5 22.6875 C-3.4382373 23.64659241 -3.4382373 23.64659241 -3.68359375 25.66796875 C-3.91867319 27.71135155 -4.0872688 29.76208684 -4.25 31.8125 C-5.25 32.8125 -5.25 32.8125 -7.8125 32.875 C-8.616875 32.854375 -9.42125 32.83375 -10.25 32.8125 C-10.33636719 32.13703125 -10.42273438 31.4615625 -10.51171875 30.765625 C-11.31502554 24.96898883 -11.31502554 24.96898883 -14.75 20.4375 C-15.575 19.90125 -16.4 19.365 -17.25 18.8125 C-19.77013745 15.33231019 -19.61793894 12.00700396 -19.25 7.8125 C-17.73007896 4.62790354 -15.96704041 2.07670034 -13.25 -0.1875 C-8.51800479 -1.76483174 -4.69388532 -1.71507348 0 0 Z " fill="#0C7E82" transform="translate(146.25,84.1875)"/>
<path d="M0 0 C4.62163135 0.48543754 7.02683538 1.46419151 10.5625 4.4375 C29.42163624 18.74265655 56.30763084 27.76525571 79.93359375 28.7265625 C82 29 82 29 85 31 C79.5926038 32.8024654 73.73535568 32.30582844 68.07128906 32.35009766 C66.54509026 32.36647042 65.01896191 32.39350529 63.49316406 32.43212891 C39.85071495 33.02603053 21.94626077 22.37037825 4.62890625 6.87890625 C1.27811614 3.63598866 1.27811614 3.63598866 0 2 C0 1.34 0 0.68 0 0 Z " fill="#F4F8F8" transform="translate(33,184)"/>
<path d="M0 0 C0.99 0.495 0.99 0.495 2 1 C-7.43510028 11.12829132 -17.76990655 19.45242558 -30 26 C-30.66 26 -31.32 26 -32 26 C-32 26.99 -32 27.98 -32 29 C-33.53333984 29.17402344 -33.53333984 29.17402344 -35.09765625 29.3515625 C-38.85333457 29.97562917 -41.90921831 30.97724135 -45.4375 32.375 C-50.7921058 34.3492598 -56.01886324 35.81151219 -61.625 36.875 C-62.29974365 37.00696777 -62.9744873 37.13893555 -63.66967773 37.27490234 C-67.04461188 37.87286237 -69.74555374 38.20596232 -73 37 C-71.42025391 36.56300781 -71.42025391 36.56300781 -69.80859375 36.1171875 C-45.2137484 29.18489433 -18.42860553 18.42860553 0 0 Z " fill="#E6EEEE" transform="translate(197,186)"/>
<path d="M0 0 C2.625 0.25 2.625 0.25 4.5 1.4375 C5.625 3.25 5.625 3.25 5.4375 5.8125 C4.625 8.25 4.625 8.25 2.625 10.25 C0.1875 10.625 0.1875 10.625 -2.375 10.25 C-4.3125 8.5625 -4.3125 8.5625 -5.375 6.25 C-3.74069987 0.39375788 -3.74069987 0.39375788 0 0 Z " fill="#F2F7F7" transform="translate(140.375,52.75)"/>
<path d="M0 0 C2.4375 0.8125 2.4375 0.8125 4.4375 2.8125 C4.25 5.8125 4.25 5.8125 3.4375 8.8125 C0.4375 10.8125 0.4375 10.8125 -1.625 10.5625 C-3.5625 9.8125 -3.5625 9.8125 -5.5625 7.8125 C-5.93046448 4.94237704 -5.93759409 3.40475382 -4.375 0.9375 C-2.5625 -0.1875 -2.5625 -0.1875 0 0 Z " fill="#F4F8F8" transform="translate(92.5625,52.1875)"/>
<path d="M0 0 C0.99 0.103125 1.98 0.20625 3 0.3125 C5.29013653 3.7477048 5.17842973 5.297831 5 9.3125 C-1.0546875 9.5078125 -1.0546875 9.5078125 -3 9.3125 C-5 7.3125 -5 7.3125 -5.25 4.8125 C-4.86676958 0.9801958 -3.75087075 0.3907157 0 0 Z " fill="#ECF1F0" transform="translate(140,90.6875)"/>
<path d="M0 0 C2.5 0.25 2.5 0.25 4.5 2.25 C4.8125 5.25 4.8125 5.25 4.5 8.25 C1.5 10.25 1.5 10.25 -1.125 9.9375 C-3.5 9.25 -3.5 9.25 -4.5 8.25 C-4.6875 5.3125 -4.6875 5.3125 -4.5 2.25 C-2.5 0.25 -2.5 0.25 0 0 Z " fill="#FAFCFC" transform="translate(91.5,97.75)"/>
<path d="M0 0 C2 1 2 1 3 3 C-0.08020777 3.70204038 -3.16451736 4.38405208 -6.25 5.0625 C-7.55904297 5.36124023 -7.55904297 5.36124023 -8.89453125 5.66601562 C-10.16103516 5.94155273 -10.16103516 5.94155273 -11.453125 6.22265625 C-12.22817383 6.39547119 -13.00322266 6.56828613 -13.80175781 6.74633789 C-16.15175291 7.01751125 -17.76197268 6.71554459 -20 6 C-18.80761719 5.65066406 -17.61523438 5.30132812 -16.38671875 4.94140625 C-14.82030407 4.48179955 -13.25389829 4.02216255 -11.6875 3.5625 C-10.50897461 3.21735352 -10.50897461 3.21735352 -9.30664062 2.86523438 C-8.1706543 2.53168945 -8.1706543 2.53168945 -7.01171875 2.19140625 C-6.31522217 1.98717041 -5.61872559 1.78293457 -4.90112305 1.57250977 C-3.25826234 1.07777388 -1.62769144 0.54256381 0 0 Z " fill="#BFD9DA" transform="translate(144,217)"/>
<path d="M0 0 C0.66 0.33 1.32 0.66 2 1 C2 1.99 2 2.98 2 4 C-0.64738916 5.4606285 -1.89448334 6 -5 6 C-5.33 6.66 -5.66 7.32 -6 8 C-6.66 6.68 -7.32 5.36 -8 4 C-6.71349294 3.30289269 -5.42059335 2.61757124 -4.125 1.9375 C-3.40570313 1.55464844 -2.68640625 1.17179688 -1.9453125 0.77734375 C-1.30335938 0.52082031 -0.66140625 0.26429688 0 0 Z " fill="#EEF3F1" transform="translate(169,206)"/>
<path d="M0 0 C0.66 0.33 1.32 0.66 2 1 C-1.63 4.63 -5.26 8.26 -9 12 C-10.32 11.34 -11.64 10.68 -13 10 C-12.22914063 9.44570312 -11.45828125 8.89140625 -10.6640625 8.3203125 C-9.66117188 7.59585938 -8.65828125 6.87140625 -7.625 6.125 C-6.62726563 5.40570313 -5.62953125 4.68640625 -4.6015625 3.9453125 C-2.00530106 2.1005342 -2.00530106 2.1005342 0 0 Z " fill="#D2E4E5" transform="translate(197,186)"/>
<path d="M0 0 C0.66 0.33 1.32 0.66 2 1 C1.36771484 1.65355469 1.36771484 1.65355469 0.72265625 2.3203125 C-2.76365195 6.11013459 -4.73880963 8.64559734 -5 14 C-5.33 14 -5.66 14 -6 14 C-6.4560284 8.29964499 -5.60412752 5.45215753 -2 1 C-1.34 0.67 -0.68 0.34 0 0 Z " fill="#197A7E" transform="translate(85,92)"/>
<path d="M0 0 C0.598125 0.165 1.19625 0.33 1.8125 0.5 C4.11344336 1.1114124 4.11344336 1.1114124 7 1 C7 1.99 7 2.98 7 4 C5.02 4 3.04 4 1 4 C0.67 2.68 0.34 1.36 0 0 Z " fill="#D6E5E6" transform="translate(158,211)"/>
</svg>
